<?xml version="1.0" encoding="utf-8"?>
<svg id="master-artboard" viewBox="0 0 1400 980" version="1.1" xmlns="http://www.w3.org/2000/svg" x="0px" y="0px" style="enable-background:new 0 0 1400 980;" width="1400px" height="980px"><defs><style id="ee-google-fonts">@import url(https://fonts.googleapis.com/css?family=Lustria:400);</style></defs><path d="M 234.12762451171875 390.9322814941406 L 234.00762939453125 390.30230712890625 C 234.00762939453125 390.12896728515625 234.1109619140625 390.04229736328125 234.317626953125 390.04229736328125 L 235.66761779785156 390.1123046875 L 238.0176239013672 390.0122985839844 C 238.25762939453125 390.0122985839844 238.37762451171875 390.1222839355469 238.37762451171875 390.34228515625 C 238.37762451171875 390.5556335449219 238.2742919921875 390.66229248046875 238.067626953125 390.66229248046875 L 237.34762573242188 390.7322998046875 C 236.8009490966797 390.7856140136719 236.2709503173828 391.1056213378906 235.75762939453125 391.6922912597656 L 230.4776153564453 397.65228271484375 C 230.25762939453125 397.9056396484375 229.9776153564453 398.1056213378906 229.6376190185547 398.2522888183594 C 229.9776153564453 398.3923034667969 230.25762939453125 398.5989685058594 230.4776153564453 398.8722839355469 L 236.3876190185547 405.28228759765625 C 236.98095703125 405.90228271484375 237.50762939453125 406.2289733886719 237.96762084960938 406.2622985839844 L 238.66761779785156 406.3122863769531 C 238.87428283691406 406.3456115722656 238.97763061523438 406.4622802734375 238.97763061523438 406.66229248046875 C 238.97763061523438 406.8623046875 238.86428833007812 406.9622802734375 238.6376190185547 406.9622802734375 C 236.75096130371094 406.928955078125 235.6509552001953 406.91229248046875 235.33761596679688 406.91229248046875 C 235.0309600830078 406.91229248046875 234.71762084960938 406.7356262207031 234.3976287841797 406.3822937011719 L 228.65762329101562 399.8323059082031 C 228.25762939453125 399.352294921875 227.88095092773438 399.1123046875 227.52761840820312 399.1123046875 C 227.52761840820312 399.1123046875 227.5209503173828 399.1123046875 227.50762939453125 399.1123046875 L 226.92762756347656 399.1123046875 C 226.8142852783203 399.1123046875 226.75762939453125 399.198974609375 226.75762939453125 399.3722839355469 L 226.75762939453125 405.3323059082031 C 226.75762939453125 405.9523010253906 226.9742889404297 406.2856140136719 227.40762329101562 406.3323059082031 L 227.6476287841797 406.3623046875 C 227.82762145996094 406.3956298828125 227.91761779785156 406.49896240234375 227.91761779785156 406.67230224609375 C 227.91761779785156 406.8989562988281 227.80429077148438 407.0122985839844 227.57762145996094 407.0122985839844 L 225.77761840820312 406.91229248046875 L 223.3976287841797 407.0122985839844 C 223.15762329101562 407.0122985839844 223.03762817382812 406.91229248046875 223.03762817382812 406.7122802734375 C 223.03762817382812 406.5122985839844 223.13429260253906 406.3956298828125 223.32762145996094 406.3623046875 L 223.7376251220703 406.3122863769531 C 224.39096069335938 406.2322998046875 224.71762084960938 405.9056396484375 224.71762084960938 405.3323059082031 L 224.71762084960938 391.6922912597656 C 224.71762084960938 391.15228271484375 224.3509521484375 390.8323059082031 223.61761474609375 390.7322998046875 L 222.91761779785156 390.66229248046875 C 222.74429321289062 390.62896728515625 222.65762329101562 390.525634765625 222.65762329101562 390.352294921875 C 222.65762329101562 390.1256103515625 222.7709503173828 390.0122985839844 222.99761962890625 390.0122985839844 L 225.70762634277344 390.1123046875 L 227.57762145996094 390.0122985839844 C 227.817626953125 390.0122985839844 227.9376220703125 390.1123046875 227.9376220703125 390.3122863769531 C 227.9376220703125 390.5122985839844 227.83428955078125 390.62896728515625 227.62762451171875 390.66229248046875 L 227.40762329101562 390.6922912597656 C 226.9742889404297 390.77227783203125 226.75762939453125 391.1056213378906 226.75762939453125 391.6922912597656 L 226.75762939453125 397.7222900390625 C 226.75762939453125 397.9156188964844 226.83096313476562 398.0122985839844 226.9776153564453 398.0122985839844 L 227.59762573242188 398.0122985839844 C 227.98428344726562 398.0122985839844 228.37762451171875 397.77227783203125 228.77761840820312 397.29229736328125 L 233.817626953125 391.55230712890625 C 234.0242919921875 391.32562255859375 234.12762451171875 391.11895751953125 234.12762451171875 390.9322814941406 ZM 250.6875457763672 393.1123046875 C 250.6875457763672 393.6856384277344 250.59754943847656 394.1222839355469 250.41754150390625 394.42230224609375 C 250.2308807373047 394.71563720703125 250.09088134765625 394.9422912597656 249.99754333496094 395.102294921875 C 249.8975372314453 395.2622985839844 249.71754455566406 395.44561767578125 249.45755004882812 395.65228271484375 C 249.1908721923828 395.8656311035156 249.00421142578125 396.0189514160156 248.8975372314453 396.1123046875 C 248.79754638671875 396.20562744140625 248.564208984375 396.35894775390625 248.19754028320312 396.5722961425781 C 247.82420349121094 396.7789611816406 247.59088134765625 396.91229248046875 247.49754333496094 396.9722900390625 C 247.30421447753906 397.1056213378906 246.79087829589844 397.37896728515625 245.95755004882812 397.79229736328125 C 246.9842071533203 399.2789611816406 248.41087341308594 400.90228271484375 250.237548828125 402.66229248046875 C 250.61753845214844 401.8822937011719 250.9442138671875 400.852294921875 251.21754455566406 399.5722961425781 C 251.25086975097656 399.43896484375 251.26754760742188 399.3189697265625 251.26754760742188 399.2122802734375 C 251.26754760742188 398.8389587402344 251.08421325683594 398.6456298828125 250.71754455566406 398.6322937011719 L 249.87754821777344 398.5823059082031 C 249.6842041015625 398.5823059082031 249.58753967285156 398.4756164550781 249.58753967285156 398.2622985839844 C 249.58753967285156 398.04229736328125 249.70755004882812 397.9322814941406 249.94754028320312 397.9322814941406 L 252.1075439453125 397.9822998046875 L 254.1475372314453 397.91229248046875 C 254.36753845214844 397.91229248046875 254.4775390625 398.00897216796875 254.4775390625 398.2023010253906 C 254.4775390625 398.3956298828125 254.390869140625 398.505615234375 254.21754455566406 398.53228759765625 L 253.737548828125 398.6123046875 C 253.33753967285156 398.6589660644531 253.0308837890625 398.74896240234375 252.81753540039062 398.8822937011719 C 252.59754943847656 399.02227783203125 252.44754028320312 399.2522888183594 252.36753845214844 399.5722961425781 C 251.96754455566406 401.2322998046875 251.53753662109375 402.5189514160156 251.07754516601562 403.4322814941406 C 251.84420776367188 404.15228271484375 252.564208984375 404.7856140136719 253.237548828125 405.3323059082031 C 253.9375457763672 405.93896484375 254.49754333496094 406.265625 254.91754150390625 406.3122863769531 L 255.34754943847656 406.3623046875 C 255.54087829589844 406.3756408691406 255.63754272460938 406.4856262207031 255.63754272460938 406.6922912597656 C 255.63754272460938 406.9056396484375 255.5242156982422 407.0122985839844 255.29754638671875 407.0122985839844 C 253.7642059326172 406.94561767578125 252.82754516601562 406.91229248046875 252.487548828125 406.91229248046875 C 252.15420532226562 406.91229248046875 251.81088256835938 406.7522888183594 251.45755004882812 406.4322814941406 C 250.81753540039062 405.8722839355469 250.33087158203125 405.4256286621094 249.99754333496094 405.09228515625 C 248.79754638671875 406.4789733886719 247.1875457763672 407.17230224609375 245.16754150390625 407.17230224609375 C 243.6142120361328 407.17230224609375 242.314208984375 406.7789611816406 241.26754760742188 405.9922790527344 C 240.2208709716797 405.1989440917969 239.69754028320312 404.1989440917969 239.69754028320312 402.9922790527344 C 239.69754028320312 401.7789611816406 240.04420471191406 400.7889709472656 240.737548828125 400.02227783203125 C 241.4375457763672 399.255615234375 242.41087341308594 398.5122985839844 243.6575469970703 397.79229736328125 C 242.7308807373047 396.2256164550781 242.26754760742188 394.8623046875 242.26754760742188 393.7023010253906 C 242.26754760742188 392.54229736328125 242.67088317871094 391.60894775390625 243.4775390625 390.90228271484375 C 244.28421020507812 390.2023010253906 245.29754638671875 389.852294921875 246.51754760742188 389.852294921875 C 247.7308807373047 389.852294921875 248.7308807373047 390.1589660644531 249.51754760742188 390.77227783203125 C 250.29754638671875 391.3856201171875 250.6875457763672 392.1656188964844 250.6875457763672 393.1123046875 M 241.99754333496094 402.4922790527344 C 241.99754333496094 403.4856262207031 242.32420349121094 404.32562255859375 242.9775390625 405.0122985839844 C 243.62420654296875 405.70562744140625 244.4342041015625 406.05230712890625 245.4075469970703 406.05230712890625 C 246.96087646484375 406.05230712890625 248.21754455566406 405.4756164550781 249.17755126953125 404.3222961425781 C 247.0308837890625 402.275634765625 245.3975372314453 400.4356384277344 244.2775421142578 398.80230712890625 C 242.75753784179688 399.84228515625 241.99754333496094 401.0722961425781 241.99754333496094 402.4922790527344 M 244.11753845214844 393.0622863769531 C 244.11753845214844 394.1356201171875 244.5308837890625 395.3989562988281 245.3575439453125 396.852294921875 C 246.46420288085938 396.2322998046875 247.26087951660156 395.7222900390625 247.74754333496094 395.3222961425781 C 248.2342071533203 394.92230224609375 248.56753540039062 394.5456237792969 248.74754333496094 394.1922912597656 C 248.92088317871094 393.8389587402344 249.00753784179688 393.40228271484375 249.00753784179688 392.8822937011719 C 249.00753784179688 392.3623046875 248.7775421142578 391.8956298828125 248.31753540039062 391.4822998046875 C 247.8508758544922 391.0622863769531 247.26087951660156 390.852294921875 246.54754638671875 390.852294921875 C 245.83421325683594 390.852294921875 245.25086975097656 391.0622863769531 244.79754638671875 391.4822998046875 C 244.34420776367188 391.8956298828125 244.11753845214844 392.42230224609375 244.11753845214844 393.0622863769531 ZM 270.7974548339844 394.2122802734375 C 270.7974548339844 394.32562255859375 270.7641296386719 394.4356384277344 270.69744873046875 394.54229736328125 C 270.6241149902344 394.6423034667969 270.5307922363281 394.6922912597656 270.4174499511719 394.6922912597656 C 270.1441345214844 394.6922912597656 269.96746826171875 394.53228759765625 269.887451171875 394.2122802734375 C 269.6007995605469 393.1456298828125 269.0641174316406 392.3056335449219 268.2774658203125 391.6922912597656 C 267.4974670410156 391.08563232421875 266.57080078125 390.78228759765625 265.4974670410156 390.78228759765625 C 263.5641174316406 390.78228759765625 262.02410888671875 391.44561767578125 260.87744140625 392.77227783203125 C 259.73077392578125 394.1056213378906 259.157470703125 395.80230712890625 259.157470703125 397.8623046875 C 259.157470703125 399.928955078125 259.7641296386719 401.7689514160156 260.9774475097656 403.3822937011719 C 262.1841125488281 405.0022888183594 263.6907958984375 405.8122863769531 265.4974670410156 405.8122863769531 C 266.5374450683594 405.8122863769531 267.31744384765625 405.7122802734375 267.83746337890625 405.5122985839844 C 268.3574523925781 405.3122863769531 268.7107849121094 405.1656188964844 268.8974609375 405.0722961425781 C 269.07745361328125 404.9856262207031 269.310791015625 404.8456115722656 269.5974426269531 404.65228271484375 C 269.8907775878906 404.46563720703125 270.05078125 404.3623046875 270.07745361328125 404.34228515625 C 270.37078857421875 404.1689453125 270.57080078125 404.1423034667969 270.6774597167969 404.2622985839844 C 270.7908020019531 404.3822937011719 270.8474426269531 404.49896240234375 270.8474426269531 404.6123046875 C 270.8474426269531 404.7189636230469 270.78411865234375 404.8389587402344 270.657470703125 404.9722900390625 C 270.11077880859375 405.5789489746094 269.55078125 406.03228759765625 268.9774475097656 406.3323059082031 C 267.9374694824219 406.8923034667969 266.69744873046875 407.17230224609375 265.2574462890625 407.17230224609375 C 262.7641296386719 407.17230224609375 260.74078369140625 406.3489685058594 259.1874694824219 404.7023010253906 C 257.6341247558594 403.0556335449219 256.8574523925781 400.9856262207031 256.8574523925781 398.4922790527344 C 256.8574523925781 395.9922790527344 257.6507873535156 393.9256286621094 259.2374572753906 392.29229736328125 C 260.81744384765625 390.6656188964844 262.90411376953125 389.852294921875 265.4974670410156 389.852294921875 C 266.8441162109375 389.852294921875 268.0641174316406 390.0356140136719 269.157470703125 390.40228271484375 C 270.25079345703125 390.7689514160156 270.7974548339844 391.12896728515625 270.7974548339844 391.4822998046875 L 270.7974548339844 394.2122802734375 Z" transform="matrix(28.083740234375, 0, 0, 28.083740234375, -6241.47705078125, -10695.478515625)" style="fill: rgb(51, 51, 51); white-space: pre; color: rgb(51, 51, 51);"/></svg>
